<svg width="407" height="271" viewBox="0 0 407 271" fill="none" xmlns="http://www.w3.org/2000/svg">
<g clip-path="url(#clip0_25_2)">
<path d="M179.195 113.262C179.195 114.794 180.434 116.036 181.966 116.036H207.718L181.099 124.92C179.636 125.396 178.852 126.979 179.327 128.424C179.719 129.599 180.813 130.332 181.966 130.332C182.256 130.332 182.56 130.28 182.852 130.194L225.706 115.899C226.999 115.473 227.801 114.165 227.577 112.817C227.356 111.475 226.199 110.486 224.837 110.486H181.965C180.434 110.487 179.195 111.725 179.195 113.262Z" fill="#F53275"/>
<path d="M222.86 139.879C222.812 139.93 216.382 146.209 203.41 146.209C196.413 146.209 191.326 144.408 188.124 142.72L225.702 130.194C227.167 129.701 227.948 128.119 227.474 126.673C226.976 125.21 225.413 124.424 223.948 124.92L181.097 139.197C180.176 139.503 179.48 140.27 179.26 141.204C179.037 142.143 179.325 143.129 180.007 143.807C180.331 144.131 188.14 151.759 203.408 151.759C218.655 151.759 226.469 144.131 226.794 143.807C227.883 142.72 227.883 140.95 226.794 139.879C225.704 138.791 223.95 138.791 222.86 139.879Z" fill="#F53275"/>
<path d="M203.41 3.33606C178.235 3.33606 157.765 23.8079 157.765 48.9627C157.765 61.6077 164.57 71.7175 170.563 80.6215C175.191 87.4769 179.195 93.4015 179.195 98.9828C179.195 100.514 180.434 101.756 181.966 101.756C183.499 101.756 184.759 100.514 184.759 98.9828C184.759 91.6995 180.092 84.805 175.174 77.5054C169.338 68.8601 163.314 59.9252 163.314 48.9627C163.314 26.8735 181.303 8.88481 203.411 8.88481C225.504 8.88481 243.489 26.8751 243.489 48.9627C243.489 59.9252 237.447 68.8585 231.629 77.5054C226.709 84.805 222.064 91.7011 222.064 98.9828C222.064 100.514 223.304 101.756 224.837 101.756C226.368 101.756 227.613 100.514 227.613 98.9828C227.613 93.4015 231.611 87.4769 236.238 80.6215C242.231 71.7175 249.038 61.6093 249.038 48.9627C249.038 23.8079 228.561 3.33606 203.41 3.33606Z" fill="#F53275"/>
<path d="M206.182 20.3875C206.182 18.8563 204.939 17.6132 203.41 17.6132C186.117 17.6132 172.044 31.6884 172.044 48.9611C172.044 50.5119 173.287 51.7534 174.817 51.7534C176.366 51.7534 177.609 50.5119 177.609 48.9611C177.609 34.7524 189.181 23.1782 203.41 23.1782C204.939 23.1782 206.182 21.9187 206.182 20.3875Z" fill="#F53275"/>
<path d="M155.534 17.631C156.029 17.9874 156.608 18.1582 157.17 18.1582C158.037 18.1582 158.872 17.7677 159.415 17.0176C160.317 15.776 160.043 14.0398 158.803 13.1367L141.461 0.525916C140.217 -0.375553 138.483 -0.0875382 137.58 1.15564C136.678 2.38255 136.952 4.11552 138.193 5.03651L155.534 17.631Z" fill="#F53275"/>
<path d="M249.632 18.1582C250.197 18.1582 250.774 17.9874 251.27 17.631L268.61 5.03651C269.853 4.11552 270.126 2.38255 269.22 1.15564C268.319 -0.0875382 266.582 -0.375553 265.339 0.525916L247.997 13.1367C246.757 14.0398 246.485 15.776 247.386 17.0176C247.933 17.7677 248.766 18.1582 249.632 18.1582Z" fill="#F53275"/>
<path d="M281.989 46.1884H260.558C259.011 46.1884 257.769 47.4299 257.769 48.9611C257.769 50.5118 259.011 51.7534 260.558 51.7534H281.989C283.517 51.7534 284.76 50.5118 284.76 48.9611C284.76 47.4315 283.517 46.1884 281.989 46.1884Z" fill="#F53275"/>
<path d="M149.035 48.9628C149.035 47.4316 147.792 46.19 146.259 46.19H124.814C123.285 46.1884 122.04 47.4316 122.04 48.9628C122.04 50.5135 123.285 51.755 124.814 51.755H146.259C147.792 51.7534 149.035 50.5118 149.035 48.9628Z" fill="#F53275"/>
<path d="M251.27 80.3123C250.022 79.4109 248.286 79.681 247.386 80.9258C246.485 82.169 246.757 83.9036 247.997 84.805L265.339 97.3996C265.836 97.7592 266.415 97.9447 266.975 97.9447C267.827 97.9447 268.678 97.5363 269.22 96.7877C270.126 95.5446 269.853 93.8083 268.61 92.9069L251.27 80.3123Z" fill="#F53275"/>
<path d="M155.534 80.3123L138.193 92.9069C136.95 93.8083 136.678 95.5446 137.58 96.7877C138.128 97.5363 138.974 97.9447 139.825 97.9447C140.403 97.9447 140.966 97.7592 141.461 97.3996L158.803 84.805C160.045 83.9036 160.316 82.169 159.415 80.9258C158.512 79.681 156.776 79.4109 155.534 80.3123Z" fill="#F53275"/>
<path d="M0 193.071C0 192.37 0.236664 191.809 0.709993 191.388C1.18332 190.967 1.7706 190.757 2.47183 190.757H59.1135C59.7446 190.757 60.3056 190.95 60.7964 191.335C61.2873 191.721 61.5678 192.299 61.6379 193.071V206.166C61.6379 206.797 61.4188 207.402 60.9805 207.981C60.5423 208.559 59.9199 208.848 59.1135 208.848H40.9692V266.384C40.9692 267.015 40.7413 267.585 40.2855 268.093C39.8297 268.602 39.2337 268.856 38.4974 268.856H23.0353C22.4393 268.856 21.8783 268.619 21.3524 268.146C20.8265 267.673 20.5635 267.085 20.5635 266.384V208.848H2.47183C1.7706 208.848 1.18332 208.621 0.709993 208.165C0.236664 207.709 0 207.043 0 206.166V193.071ZM72.1563 205.956C72.1563 205.36 72.2878 204.79 72.5508 204.247C72.8137 203.703 73.1381 203.274 73.5237 202.958C74.4353 202.362 75.382 202.064 76.3637 202.064H84.3051C84.9713 202.064 85.4972 202.187 85.8829 202.432C86.2686 202.678 86.5929 202.993 86.8558 203.379C87.1188 203.765 87.3467 204.203 87.5395 204.694C87.7324 205.185 87.969 205.675 88.2495 206.166C88.3196 206.306 88.4599 206.648 88.6703 207.192C88.8806 207.735 89.1085 208.331 89.354 208.98C89.5994 209.629 89.836 210.242 90.0639 210.821C90.2918 211.399 90.4409 211.776 90.511 211.951C91.5628 210.794 92.5708 209.576 93.535 208.296C94.4992 207.016 95.5248 205.833 96.6117 204.746C97.6986 203.659 98.9082 202.765 100.241 202.064C101.573 201.363 103.151 201.012 104.974 201.012C106.867 201.012 108.559 201.152 110.049 201.433C111.539 201.713 112.95 202.125 114.283 202.669C115.615 203.212 116.939 203.905 118.253 204.746C119.568 205.588 120.997 206.569 122.54 207.691C124.959 208.989 125.415 210.917 123.907 213.477L119.121 221.628C118.42 222.68 117.561 223.329 116.544 223.574C115.527 223.82 114.423 223.662 113.231 223.101C111.723 221.628 110.189 220.533 108.629 219.814C107.069 219.095 105.289 218.736 103.291 218.736C101.923 218.736 100.723 218.929 99.6883 219.314C98.654 219.7 97.7161 220.243 96.8746 220.945C96.0332 221.646 95.2443 222.487 94.508 223.469C93.7717 224.451 93.0354 225.538 92.2991 226.73V264.806C92.2991 266.139 91.9748 267.147 91.3262 267.83C90.6775 268.514 89.5994 268.856 88.0917 268.856H76.2585C73.5237 268.856 72.1563 267.506 72.1563 264.806V205.956ZM196.326 264.964C196.326 265.56 196.221 266.13 196.011 266.673C195.8 267.217 195.45 267.646 194.959 267.962C194.573 268.348 194.117 268.593 193.591 268.698C193.066 268.803 192.61 268.856 192.224 268.856H181.863C181.127 268.856 180.531 268.76 180.075 268.567C179.62 268.374 179.251 268.102 178.971 267.752C178.69 267.401 178.454 266.971 178.261 266.463C178.068 265.955 177.866 265.402 177.656 264.806L176.131 260.862C175.184 261.809 174.15 262.817 173.028 263.886C171.906 264.955 170.67 265.946 169.32 266.858C167.97 267.769 166.507 268.532 164.929 269.145C163.351 269.759 161.668 270.066 159.88 270.066C156.689 270.066 153.63 269.662 150.703 268.856C147.775 268.05 145.04 266.901 142.498 265.411C139.956 263.921 137.651 262.133 135.582 260.047C133.514 257.961 131.734 255.638 130.244 253.078C128.754 250.519 127.606 247.758 126.8 244.795C125.993 241.832 125.59 238.738 125.59 235.513C125.59 230.639 126.484 226.107 128.272 221.918C130.06 217.728 132.497 214.081 135.582 210.978C138.668 207.875 142.297 205.439 146.469 203.668C150.641 201.898 155.112 201.012 159.88 201.012C162.054 201.012 164.052 201.337 165.875 201.985C167.699 202.634 169.355 203.484 170.845 204.536C172.336 205.588 173.685 206.78 174.895 208.112C176.105 209.444 177.183 210.794 178.129 212.162L180.181 205.798C180.531 204.922 180.82 204.212 181.048 203.668C181.276 203.125 181.522 202.721 181.785 202.459C182.048 202.196 182.372 202.02 182.758 201.933C183.143 201.845 183.687 201.801 184.388 201.801H192.224C192.61 201.801 193.066 201.854 193.591 201.959C194.117 202.064 194.573 202.309 194.959 202.695C195.45 203.081 195.8 203.519 196.011 204.01C196.221 204.501 196.326 205.062 196.326 205.693V264.964ZM144.523 235.513C144.523 237.827 144.882 239.992 145.601 242.008C146.32 244.024 147.345 245.768 148.678 247.241C150.01 248.713 151.614 249.879 153.49 250.738C155.366 251.597 157.443 252.027 159.722 252.027C162.071 252.027 164.254 251.597 166.27 250.738C168.286 249.879 170.039 248.713 171.529 247.241C173.019 245.768 174.185 244.024 175.026 242.008C175.868 239.992 176.289 237.827 176.289 235.513C176.289 233.269 175.868 231.13 175.026 229.096C174.185 227.063 173.019 225.275 171.529 223.732C170.039 222.189 168.286 220.971 166.27 220.077C164.254 219.183 162.071 218.736 159.722 218.736C157.443 218.736 155.366 219.183 153.49 220.077C151.614 220.971 150.01 222.189 148.678 223.732C147.345 225.275 146.32 227.063 145.601 229.096C144.882 231.13 144.523 233.269 144.523 235.513ZM251.706 248.293C252.197 247.942 252.661 247.723 253.099 247.635C253.538 247.547 253.88 247.504 254.125 247.504C254.721 247.504 255.264 247.626 255.755 247.872C256.246 248.117 256.755 248.643 257.28 249.45L263.171 258.338C263.346 258.618 263.513 258.934 263.67 259.284C263.828 259.635 263.907 259.915 263.907 260.126C263.907 260.932 263.653 261.59 263.145 262.098C262.636 262.606 262.084 263.053 261.488 263.439C258.613 265.438 255.466 267.042 252.048 268.251C248.629 269.461 245.009 270.066 241.187 270.066C238.032 270.066 234.99 269.662 232.063 268.856C229.135 268.05 226.409 266.901 223.885 265.411C221.36 263.921 219.046 262.133 216.942 260.047C214.839 257.961 213.051 255.638 211.578 253.078C210.105 250.519 208.957 247.758 208.133 244.795C207.309 241.832 206.897 238.738 206.897 235.513C206.897 232.287 207.309 229.184 208.133 226.204C208.957 223.224 210.105 220.463 211.578 217.921C213.051 215.379 214.839 213.065 216.942 210.978C219.046 208.892 221.36 207.113 223.885 205.64C226.409 204.168 229.135 203.028 232.063 202.222C234.99 201.415 238.032 201.012 241.187 201.012C245.009 201.012 248.541 201.521 251.785 202.537C255.028 203.554 258.069 205.062 260.909 207.06L260.752 206.903C261.523 207.358 262.136 207.893 262.592 208.507C263.048 209.12 263.276 209.883 263.276 210.794C263.276 211.425 263.066 212.074 262.645 212.74L257.964 220.682C256.982 222.4 255.79 223.259 254.388 223.259C254.072 223.259 253.687 223.18 253.231 223.022C252.775 222.864 252.267 222.593 251.706 222.207C250.163 221.19 248.506 220.357 246.736 219.709C244.965 219.06 243.081 218.736 241.082 218.736C238.873 218.736 236.84 219.183 234.981 220.077C233.123 220.971 231.537 222.189 230.222 223.732C228.907 225.275 227.882 227.063 227.145 229.096C226.409 231.13 226.041 233.269 226.041 235.513C226.041 237.827 226.409 239.992 227.145 242.008C227.882 244.024 228.907 245.768 230.222 247.241C231.537 248.713 233.123 249.879 234.981 250.738C236.84 251.597 238.873 252.027 241.082 252.027C243.081 252.027 244.956 251.676 246.709 250.975C248.463 250.273 250.128 249.379 251.706 248.293ZM277.949 191.651C277.949 190.564 278.309 189.749 279.027 189.205C279.746 188.662 280.772 188.145 282.104 187.654L294.042 183.499C294.218 183.464 294.384 183.446 294.542 183.446H294.989C296.286 183.446 297.154 183.823 297.592 184.577C298.031 185.331 298.25 186.322 298.25 187.549L298.197 204.115H306.98C308.102 204.115 309.014 204.448 309.715 205.114C310.416 205.781 310.767 206.78 310.767 208.112V218.262C310.767 219.735 310.416 220.813 309.715 221.497C309.014 222.181 308.102 222.522 306.98 222.522H298.197L298.25 264.806C298.25 266.139 297.864 267.147 297.093 267.83C296.321 268.514 295.252 268.856 293.885 268.856H281.999C279.299 268.856 277.949 267.506 277.949 264.806L277.897 222.522H274.057C271.358 222.522 270.008 221.102 270.008 218.262V208.112C270.008 205.447 271.358 204.115 274.057 204.115H277.897L277.949 191.651ZM319.024 206.166C319.024 205.044 319.339 204.08 319.97 203.274C320.601 202.467 321.583 202.064 322.915 202.064H334.959C335.38 202.064 335.836 202.16 336.326 202.353C336.817 202.546 337.273 202.827 337.694 203.195C338.115 203.563 338.474 203.992 338.772 204.483C339.07 204.974 339.219 205.535 339.219 206.166V264.806C339.219 266.139 338.851 267.147 338.114 267.83C337.378 268.514 336.326 268.856 334.959 268.856H322.915C320.321 268.856 319.024 267.506 319.024 264.806V206.166ZM319.024 179.555C319.024 178.082 319.339 177.039 319.97 176.425C320.601 175.812 321.583 175.505 322.915 175.505H335.117C336.344 175.505 337.334 175.812 338.088 176.425C338.842 177.039 339.219 178.082 339.219 179.555V189.81C339.219 190.231 339.123 190.687 338.93 191.178C338.737 191.668 338.465 192.142 338.114 192.597C337.764 193.053 337.334 193.43 336.826 193.728C336.318 194.026 335.748 194.175 335.117 194.175H322.915C320.321 194.175 319.024 192.72 319.024 189.81V179.555ZM394.598 248.293C395.089 247.942 395.554 247.723 395.992 247.635C396.43 247.547 396.772 247.504 397.018 247.504C397.614 247.504 398.157 247.626 398.648 247.872C399.139 248.117 399.647 248.643 400.173 249.45L406.063 258.338C406.239 258.618 406.405 258.934 406.563 259.284C406.721 259.635 406.8 259.915 406.8 260.126C406.8 260.932 406.546 261.59 406.037 262.098C405.529 262.606 404.977 263.053 404.381 263.439C401.506 265.438 398.359 267.042 394.94 268.251C391.522 269.461 387.902 270.066 384.08 270.066C380.924 270.066 377.883 269.662 374.955 268.856C372.028 268.05 369.302 266.901 366.777 265.411C364.253 263.921 361.939 262.133 359.835 260.047C357.731 257.961 355.943 255.638 354.471 253.078C352.998 250.519 351.85 247.758 351.026 244.795C350.202 241.832 349.79 238.738 349.79 235.513C349.79 232.287 350.202 229.184 351.026 226.204C351.85 223.224 352.998 220.463 354.471 217.921C355.943 215.379 357.731 213.065 359.835 210.978C361.939 208.892 364.253 207.113 366.777 205.64C369.302 204.168 372.028 203.028 374.955 202.222C377.883 201.415 380.924 201.012 384.08 201.012C387.902 201.012 391.434 201.521 394.677 202.537C397.92 203.554 400.962 205.062 403.802 207.06L403.644 206.903C404.416 207.358 405.029 207.893 405.485 208.507C405.941 209.12 406.169 209.883 406.169 210.794C406.169 211.425 405.958 212.074 405.538 212.74L400.857 220.682C399.875 222.4 398.683 223.259 397.281 223.259C396.965 223.259 396.579 223.18 396.124 223.022C395.668 222.864 395.159 222.593 394.598 222.207C393.056 221.19 391.399 220.357 389.628 219.709C387.858 219.06 385.973 218.736 383.975 218.736C381.766 218.736 379.732 219.183 377.874 220.077C376.016 220.971 374.429 222.189 373.115 223.732C371.8 225.275 370.774 227.063 370.038 229.096C369.302 231.13 368.933 233.269 368.933 235.513C368.933 237.827 369.302 239.992 370.038 242.008C370.774 244.024 371.8 245.768 373.115 247.241C374.429 248.713 376.016 249.879 377.874 250.738C379.732 251.597 381.766 252.027 383.975 252.027C385.973 252.027 387.849 251.676 389.602 250.975C391.355 250.273 393.021 249.379 394.598 248.293Z" fill="white"/>
</g>
<defs>
<clipPath id="clip0_25_2">
<rect width="406.8" height="270.066" fill="white"/>
</clipPath>
</defs>
</svg>
